<?xml version="1.0" encoding="utf-8"?>
<!-- Generator: Adobe Illustrator 23.1.0, SVG Export Plug-In . SVG Version: 6.00 Build 0)  -->
<svg version="1.1" id="Capa_1" xmlns="http://www.w3.org/2000/svg" xmlns:xlink="http://www.w3.org/1999/xlink" x="0px" y="0px"
	 viewBox="0 0 16 16" style="enable-background:new 0 0 16 16;" xml:space="preserve">
<style type="text/css">
	.st0{fill:#91979C;}
</style>
<g>
	<path class="st0" d="M8,0C4.3,0,1.3,3,1.3,6.7v1.6c0,0.5,0.4,0.8,0.8,0.8S3,8.7,3,8.3V6.7c0-2.8,2.3-5,5-5c2.8,0,5,2.3,5,5v8.4
		c0,0.5,0.4,0.8,0.8,0.8s0.8-0.4,0.8-0.8V6.7C14.8,3,11.7,0,8,0z"/>
	<path class="st0" d="M5.1,7.7c-0.5,0-0.8,0.4-0.8,0.8v2.7c0,0.5,0.4,0.8,0.8,0.8s0.8-0.4,0.8-0.8V8.5C5.9,8.1,5.6,7.7,5.1,7.7z"/>
	<path class="st0" d="M8,3.3c-1.5,0-2.8,0.9-3.4,2.3C4.4,6,4.6,6.5,5.1,6.7c0.4,0.2,0.9,0,1.1-0.4C6.5,5.5,7.2,5,8,5
		c0.8,0,1.5,0.4,1.8,1.1C10,6.4,10.1,6.7,10.1,7v4.1c0,0.5,0.4,0.8,0.8,0.8c0.5,0,0.8-0.4,0.8-0.8V7c0-0.6-0.1-1.1-0.4-1.6
		C10.7,4.1,9.5,3.3,8,3.3z"/>
	<path class="st0" d="M2.2,10.3c-0.5,0-0.8,0.4-0.8,0.8v4c0,0.5,0.4,0.8,0.8,0.8S3,15.6,3,15.2v-4C3,10.7,2.6,10.3,2.2,10.3z"/>
	<path class="st0" d="M5.1,13c-0.5,0-0.8,0.4-0.8,0.8v1.3c0,0.5,0.4,0.8,0.8,0.8s0.8-0.4,0.8-0.8v-1.3C5.9,13.4,5.6,13,5.1,13z"/>
	<path class="st0" d="M8.2,7C7.8,7,7.4,7.3,7.4,7.7v6.2c0,0.4,0.3,0.7,0.7,0.7c0.4,0,0.7-0.3,0.7-0.7V7.7C8.9,7.3,8.5,7,8.2,7z"/>
	<path class="st0" d="M10.9,12.6c-0.5,0-0.8,0.4-0.8,0.8v1.7c0,0.5,0.4,0.8,0.8,0.8c0.5,0,0.8-0.4,0.8-0.8v-1.7
		C11.8,12.9,11.4,12.6,10.9,12.6z"/>
</g>
</svg>
