<?xml version="1.0" encoding="utf-8"?>
<!-- Generator: Adobe Illustrator 23.0.2, SVG Export Plug-In . SVG Version: 6.00 Build 0)  -->
<svg version="1.1" id="Layer_1" xmlns="http://www.w3.org/2000/svg" xmlns:xlink="http://www.w3.org/1999/xlink" x="0px" y="0px"
	 viewBox="0 0 14 14" style="enable-background:new 0 0 14 14;" xml:space="preserve">
<style type="text/css">
	.st0{fill:#91979C;}
</style>
<g>
	<path class="st0" d="M6.9,1.6c2.3,0,4.2,1.8,4.2,4c0,2.2-1.9,4.3-3.5,6c-0.3,0.3-0.5,0.6-0.7,0.8c-0.1-0.1-0.3-0.3-0.4-0.4
		c-1.5-1.7-3.8-4.3-3.8-6.4C2.6,3.4,4.5,1.6,6.9,1.6 M6.9,0.1c-3.2,0-5.7,2.5-5.7,5.5c0,2.9,3,6,4.7,7.9c0.3,0.3,0.7,0.5,1,0.5
		c0.4,0,0.8-0.2,1-0.5c1.6-1.9,4.7-4.7,4.7-7.9C12.6,2.5,10,0.1,6.9,0.1L6.9,0.1z"/>
</g>
<g>
	<path class="st0" d="M6.8,4C6,4,5.3,4.7,5.3,5.5S6,6.9,6.8,6.9s1.5-0.7,1.5-1.5S7.6,4,6.8,4L6.8,4z"/>
</g>
</svg>
